<?xml version="1.0" encoding="UTF-8"?>
<svg id="Layer_2" data-name="Layer 2" xmlns="http://www.w3.org/2000/svg" viewBox="0 0 772.73 298.16">
  <defs>
    <style>
      .cls-1 {
        fill: #fff;
        stroke: #fff;
        stroke-miterlimit: 10;
        stroke-width: 1.5px;
      }

      .cls-2 {
        fill: #f37a2d;
      }

      .cls-3 {
        fill: #285d95;
      }
    </style>
  </defs>
  <g id="Layer_1-2" data-name="Layer 1">
    <g>
      <g>
        <path class="cls-1" d="M81.13,297.02v-23.36h11.06c2.22,0,3.91.21,5.07.63,1.16.42,2.08,1.16,2.77,2.22.69,1.06,1.04,2.24,1.04,3.52,0,1.66-.57,3.05-1.72,4.19-1.15,1.14-2.92,1.86-5.31,2.17.87.39,1.54.78,1.99,1.16.96.83,1.88,1.86,2.74,3.11l4.34,6.36h-4.15l-3.3-4.86c-.96-1.4-1.76-2.48-2.38-3.22-.62-.74-1.18-1.26-1.68-1.56-.49-.3-1-.5-1.51-.62-.37-.07-.99-.11-1.84-.11h-3.83v10.37h-3.3ZM84.43,283.96h7.1c1.51,0,2.69-.15,3.54-.44.85-.29,1.5-.76,1.94-1.4.44-.64.66-1.34.66-2.1,0-1.1-.43-2.01-1.28-2.73-.86-.71-2.21-1.07-4.06-1.07h-7.9v7.73Z"/>
        <path class="cls-1" d="M105.89,297.02v-23.36h18.04v2.76h-14.74v7.16h13.8v2.74h-13.8v7.95h15.31v2.76h-18.62Z"/>
        <path class="cls-1" d="M128.51,297.02v-23.36h9.36c1.91,0,3.43.24,4.59.71s2.05,1.2,2.71,2.18c.65.98.98,2.01.98,3.08,0,1-.29,1.94-.87,2.82-.58.88-1.45,1.59-2.62,2.14,1.51.41,2.67,1.12,3.48,2.12.81,1,1.22,2.18,1.22,3.54,0,1.09-.25,2.11-.74,3.05-.49.94-1.1,1.67-1.83,2.18-.73.51-1.64.9-2.73,1.16-1.09.26-2.44.39-4.02.39h-9.51ZM131.81,283.47h5.39c1.46,0,2.51-.09,3.15-.27.84-.23,1.47-.62,1.9-1.16.43-.54.64-1.22.64-2.04,0-.78-.2-1.46-.6-2.05-.4-.59-.96-.99-1.7-1.21-.74-.22-2-.33-3.79-.33h-4.99v7.06ZM131.81,294.26h6.21c1.07,0,1.81-.04,2.25-.11.76-.13,1.4-.34,1.91-.64.51-.3.93-.73,1.26-1.3.33-.57.49-1.22.49-1.97,0-.87-.24-1.63-.71-2.27s-1.14-1.09-1.98-1.36c-.84-.26-2.06-.39-3.65-.39h-5.77v8.03Z"/>
        <path class="cls-1" d="M167.84,273.65h3.3v13.5c0,2.35-.28,4.21-.85,5.59-.57,1.38-1.59,2.5-3.07,3.37-1.48.87-3.42,1.3-5.83,1.3s-4.25-.38-5.73-1.13c-1.49-.75-2.55-1.85-3.18-3.27-.64-1.43-.95-3.38-.95-5.86v-13.5h3.3v13.48c0,2.03.2,3.52.6,4.49.4.96,1.09,1.7,2.08,2.22.98.52,2.18.78,3.6.78,2.43,0,4.16-.51,5.19-1.55,1.03-1.03,1.55-3.01,1.55-5.94v-13.48Z"/>
        <path class="cls-1" d="M176.78,297.02v-23.36h3.3v23.36h-3.3Z"/>
        <path class="cls-1" d="M185.35,297.02v-23.36h3.3v20.61h12.29v2.76h-15.59Z"/>
        <path class="cls-1" d="M204.45,297.02v-23.36h8.59c1.94,0,3.42.11,4.44.33,1.43.31,2.65.87,3.66,1.67,1.32,1.04,2.3,2.37,2.95,3.99.65,1.62.98,3.47.98,5.55,0,1.77-.22,3.35-.66,4.72s-1.01,2.5-1.7,3.4c-.69.9-1.45,1.6-2.27,2.12-.82.52-1.81.91-2.98,1.17-1.16.27-2.5.4-4.01.4h-9ZM207.75,294.26h5.33c1.64,0,2.94-.14,3.87-.43.94-.29,1.68-.69,2.24-1.21.78-.73,1.39-1.72,1.83-2.96s.66-2.74.66-4.5c0-2.44-.43-4.32-1.28-5.63-.86-1.31-1.9-2.19-3.12-2.64-.88-.32-2.31-.48-4.27-.48h-5.24v17.85Z"/>
        <path class="cls-1" d="M256.26,288.82l3.3.78c-.69,2.54-1.94,4.48-3.73,5.81-1.8,1.33-4,2-6.59,2s-4.87-.51-6.56-1.54c-1.68-1.03-2.97-2.51-3.85-4.45s-1.32-4.03-1.32-6.26c0-2.43.5-4.56,1.49-6.37s2.41-3.19,4.24-4.13c1.83-.94,3.85-1.41,6.05-1.41,2.5,0,4.59.6,6.3,1.78,1.7,1.19,2.89,2.86,3.56,5.02l-3.25.72c-.58-1.7-1.42-2.94-2.52-3.71-1.1-.78-2.48-1.16-4.15-1.16-1.92,0-3.52.43-4.81,1.29s-2.19,2.02-2.71,3.47c-.52,1.45-.78,2.95-.78,4.49,0,1.99.31,3.72.93,5.2.62,1.48,1.58,2.59,2.88,3.32,1.3.73,2.72,1.1,4.24,1.1,1.85,0,3.41-.5,4.7-1.5,1.28-1,2.15-2.48,2.6-4.45Z"/>
        <path class="cls-1" d="M263.26,297.02v-23.36h11.06c2.22,0,3.91.21,5.07.63,1.16.42,2.08,1.16,2.77,2.22.69,1.06,1.04,2.24,1.04,3.52,0,1.66-.57,3.05-1.72,4.19-1.15,1.14-2.92,1.86-5.31,2.17.87.39,1.54.78,1.99,1.16.96.83,1.88,1.86,2.74,3.11l4.34,6.36h-4.15l-3.3-4.86c-.96-1.4-1.76-2.48-2.38-3.22-.62-.74-1.18-1.26-1.68-1.56-.49-.3-1-.5-1.51-.62-.37-.07-.99-.11-1.84-.11h-3.83v10.37h-3.3ZM266.56,283.96h7.1c1.51,0,2.69-.15,3.54-.44.85-.29,1.5-.76,1.94-1.4.44-.64.66-1.34.66-2.1,0-1.1-.43-2.01-1.28-2.73-.86-.71-2.21-1.07-4.06-1.07h-7.9v7.73Z"/>
        <path class="cls-1" d="M288.03,297.02v-23.36h18.04v2.76h-14.74v7.16h13.8v2.74h-13.8v7.95h15.31v2.76h-18.62Z"/>
        <path class="cls-1" d="M310.79,297.02v-23.36h8.59c1.94,0,3.42.11,4.44.33,1.43.31,2.65.87,3.66,1.67,1.32,1.04,2.3,2.37,2.95,3.99.65,1.62.98,3.47.98,5.55,0,1.77-.22,3.35-.66,4.72s-1.01,2.5-1.7,3.4c-.69.9-1.45,1.6-2.27,2.12-.82.52-1.81.91-2.98,1.17-1.16.27-2.5.4-4.01.4h-9ZM314.09,294.26h5.33c1.64,0,2.94-.14,3.87-.43.94-.29,1.68-.69,2.24-1.21.78-.73,1.39-1.72,1.83-2.96s.66-2.74.66-4.5c0-2.44-.43-4.32-1.28-5.63-.86-1.31-1.9-2.19-3.12-2.64-.88-.32-2.31-.48-4.27-.48h-5.24v17.85Z"/>
        <path class="cls-1" d="M336.1,297.02v-23.36h3.3v23.36h-3.3Z"/>
        <path class="cls-1" d="M351.15,297.02v-20.61h-8.22v-2.76h19.77v2.76h-8.25v20.61h-3.3Z"/>
        <path class="cls-1" d="M362.28,297.02v-3.27h3.49v3.27h-3.49Z"/>
        <path class="cls-1" d="M380.38,297.02v-23.36h11.06c2.22,0,3.91.21,5.07.63,1.16.42,2.08,1.16,2.77,2.22.69,1.06,1.04,2.24,1.04,3.52,0,1.66-.57,3.05-1.72,4.19-1.15,1.14-2.92,1.86-5.31,2.17.87.39,1.54.78,1.99,1.16.96.83,1.88,1.86,2.74,3.11l4.34,6.36h-4.15l-3.3-4.86c-.96-1.4-1.76-2.48-2.38-3.22-.62-.74-1.18-1.26-1.68-1.56-.49-.3-1-.5-1.51-.62-.37-.07-.99-.11-1.84-.11h-3.83v10.37h-3.3ZM383.69,283.96h7.1c1.51,0,2.69-.15,3.54-.44.85-.29,1.5-.76,1.94-1.4.44-.64.66-1.34.66-2.1,0-1.1-.43-2.01-1.29-2.73-.86-.71-2.21-1.07-4.06-1.07h-7.9v7.73Z"/>
        <path class="cls-1" d="M405.15,297.02v-23.36h18.04v2.76h-14.74v7.16h13.8v2.74h-13.8v7.95h15.31v2.76h-18.62Z"/>
        <path class="cls-1" d="M439.58,287.85v-2.74l10.57-.02v8.67c-1.62,1.21-3.3,2.12-5.02,2.73-1.72.61-3.49.92-5.31.92-2.45,0-4.68-.49-6.68-1.47s-3.51-2.4-4.54-4.26c-1.02-1.86-1.53-3.94-1.53-6.23s.51-4.4,1.52-6.37c1.02-1.97,2.48-3.43,4.38-4.39,1.91-.96,4.1-1.43,6.58-1.43,1.8,0,3.43.27,4.89.82,1.46.55,2.6,1.31,3.43,2.29.83.98,1.46,2.25,1.89,3.82l-2.98.76c-.37-1.19-.84-2.12-1.4-2.8-.56-.68-1.35-1.22-2.38-1.63-1.03-.41-2.18-.61-3.44-.61-1.51,0-2.81.22-3.91.65-1.1.43-1.99,1-2.66,1.7s-1.2,1.47-1.57,2.31c-.64,1.45-.95,3.01-.95,4.7,0,2.08.38,3.82,1.15,5.23.77,1.4,1.88,2.44,3.34,3.12,1.46.68,3.02,1.02,4.66,1.02,1.43,0,2.83-.26,4.19-.77,1.36-.51,2.39-1.06,3.1-1.65v-4.35h-7.33Z"/>
        <path class="cls-1" d="M451.86,297.02l9.58-23.36h3.56l10.21,23.36h-3.76l-2.91-7.08h-10.43l-2.74,7.08h-3.5ZM459.05,287.42h8.46l-2.6-6.47c-.79-1.97-1.38-3.58-1.77-4.84-.32,1.5-.77,2.99-1.34,4.46l-2.74,6.85Z"/>
        <path class="cls-1" d="M477.98,297.02v-23.36h3.3v23.36h-3.3Z"/>
        <path class="cls-1" d="M486.65,297.02v-23.36h3.39l13.1,18.34v-18.34h3.16v23.36h-3.39l-13.1-18.36v18.36h-3.16Z"/>
        <path class="cls-1" d="M527.1,297.02v-9.9l-9.61-13.47h4.02l4.92,7.04c.91,1.32,1.75,2.64,2.54,3.95.75-1.22,1.66-2.6,2.72-4.13l4.83-6.87h3.85l-9.95,13.47v9.9h-3.3Z"/>
        <path class="cls-1" d="M541.89,285.64c0-3.88,1.11-6.91,3.34-9.11,2.22-2.19,5.09-3.29,8.61-3.29,2.3,0,4.38.52,6.23,1.55,1.85,1.03,3.26,2.47,4.23,4.31.97,1.84,1.46,3.93,1.46,6.27s-.51,4.49-1.53,6.36c-1.02,1.87-2.47,3.29-4.34,4.25s-3.89,1.44-6.06,1.44c-2.35,0-4.45-.53-6.3-1.59-1.85-1.06-3.25-2.51-4.2-4.35-.95-1.84-1.43-3.78-1.43-5.83ZM545.29,285.68c0,2.82.81,5.03,2.43,6.65,1.62,1.62,3.64,2.43,6.08,2.43s4.53-.82,6.13-2.45c1.61-1.64,2.41-3.96,2.41-6.96,0-1.9-.34-3.56-1.03-4.98-.69-1.42-1.69-2.52-3.01-3.3-1.32-.78-2.81-1.17-4.45-1.17-2.34,0-4.35.75-6.03,2.26-1.68,1.5-2.53,4.01-2.53,7.53Z"/>
        <path class="cls-1" d="M585.95,273.65h3.3v13.5c0,2.35-.28,4.21-.85,5.59-.57,1.38-1.59,2.5-3.07,3.37-1.48.87-3.42,1.3-5.83,1.3s-4.25-.38-5.73-1.13c-1.49-.75-2.55-1.85-3.18-3.27-.64-1.43-.95-3.38-.95-5.86v-13.5h3.3v13.48c0,2.03.2,3.52.6,4.49.4.96,1.09,1.7,2.08,2.22.98.52,2.18.78,3.6.78,2.43,0,4.16-.51,5.19-1.55,1.03-1.03,1.55-3.01,1.55-5.94v-13.48Z"/>
        <path class="cls-1" d="M594.38,297.02v-23.36h11.06c2.22,0,3.91.21,5.07.63,1.16.42,2.08,1.16,2.77,2.22.69,1.06,1.04,2.24,1.04,3.52,0,1.66-.57,3.05-1.72,4.19-1.15,1.14-2.92,1.86-5.31,2.17.87.39,1.54.78,1.99,1.16.96.83,1.88,1.86,2.74,3.11l4.34,6.36h-4.15l-3.3-4.86c-.96-1.4-1.76-2.48-2.38-3.22-.62-.74-1.18-1.26-1.68-1.56-.49-.3-1-.5-1.51-.62-.37-.07-.99-.11-1.84-.11h-3.83v10.37h-3.3ZM597.68,283.96h7.1c1.51,0,2.69-.15,3.54-.44.85-.29,1.5-.76,1.94-1.4.44-.64.66-1.34.66-2.1,0-1.1-.43-2.01-1.29-2.73-.86-.71-2.21-1.07-4.06-1.07h-7.9v7.73Z"/>
        <path class="cls-1" d="M628.51,297.02v-23.36h16.83v2.76h-13.53v7.24h11.71v2.76h-11.71v10.61h-3.3Z"/>
        <path class="cls-1" d="M665.58,273.65h3.3v13.5c0,2.35-.28,4.21-.85,5.59-.57,1.38-1.59,2.5-3.07,3.37-1.48.87-3.42,1.3-5.83,1.3s-4.25-.38-5.73-1.13c-1.49-.75-2.55-1.85-3.18-3.27-.64-1.43-.95-3.38-.95-5.86v-13.5h3.3v13.48c0,2.03.2,3.52.6,4.49.4.96,1.09,1.7,2.08,2.22.98.52,2.18.78,3.6.78,2.43,0,4.16-.51,5.19-1.55,1.03-1.03,1.55-3.01,1.55-5.94v-13.48Z"/>
        <path class="cls-1" d="M680.31,297.02v-20.61h-8.22v-2.76h19.77v2.76h-8.25v20.61h-3.3Z"/>
        <path class="cls-1" d="M711.2,273.65h3.3v13.5c0,2.35-.28,4.21-.85,5.59-.57,1.38-1.59,2.5-3.07,3.37-1.48.87-3.42,1.3-5.83,1.3s-4.25-.38-5.73-1.13-2.55-1.85-3.18-3.27c-.64-1.43-.95-3.38-.95-5.86v-13.5h3.3v13.48c0,2.03.2,3.52.6,4.49.4.96,1.09,1.7,2.08,2.22.98.52,2.18.78,3.6.78,2.43,0,4.16-.51,5.19-1.55,1.03-1.03,1.55-3.01,1.55-5.94v-13.48Z"/>
        <path class="cls-1" d="M719.63,297.02v-23.36h11.06c2.22,0,3.91.21,5.07.63,1.16.42,2.08,1.16,2.77,2.22.69,1.06,1.04,2.24,1.04,3.52,0,1.66-.57,3.05-1.72,4.19-1.15,1.14-2.92,1.86-5.31,2.17.87.39,1.54.78,1.99,1.16.96.83,1.88,1.86,2.74,3.11l4.34,6.36h-4.15l-3.3-4.86c-.96-1.4-1.76-2.48-2.38-3.22-.62-.74-1.18-1.26-1.67-1.56-.49-.3-1-.5-1.51-.62-.37-.07-.99-.11-1.84-.11h-3.83v10.37h-3.3ZM722.93,283.96h7.1c1.51,0,2.69-.15,3.54-.44.85-.29,1.5-.76,1.94-1.4.44-.64.66-1.34.66-2.1,0-1.1-.43-2.01-1.29-2.73-.86-.71-2.21-1.07-4.06-1.07h-7.9v7.73Z"/>
        <path class="cls-1" d="M744.4,297.02v-23.36h18.04v2.76h-14.73v7.16h13.8v2.74h-13.8v7.95h15.31v2.76h-18.62Z"/>
        <path class="cls-1" d="M767.63,297.02v-3.27h3.49v3.27h-3.49Z"/>
      </g>
      <g>
        <path class="cls-2" d="M304.02,150.53v-12.42c6.21,2.73,13.42,4.79,21.85,4.79,9.65,0,13.86-4.1,13.86-10.26s-2.55-8.43-10.65-10.6l-6.88-1.82c-10.98-2.96-17.97-8.43-17.97-22.91,0-13.45,8.54-22.68,26.06-22.68,10.65,0,16.41,1.94,20.85,4.22v12.19c-5.1-1.82-11.31-3.99-19.85-3.99-7.76,0-11.98,3.19-11.98,9.12,0,5.47,2.44,7.86,9.65,9.8l6.65,1.82c12.42,3.42,19.63,8.66,19.63,23.13,0,15.27-9.2,24.39-27.95,24.39-10.2,0-17.97-1.94-23.29-4.79Z"/>
        <path class="cls-2" d="M383.54,75.89h16.41l26.73,78.18h-16.19l-6.32-18.69h-27.06l-6.21,18.69h-14.42l27.06-78.18ZM380.65,123.86h19.85l-9.87-29.63h-.44l-9.54,29.63Z"/>
        <path class="cls-2" d="M432.22,75.89h21.85l17.3,55.61h.33l17.08-55.61h21.51v78.18h-15.53v-58.46h-.33l-18.08,58.46h-12.31l-17.85-58.57h-.33v58.57h-13.64v-78.18Z"/>
        <path class="cls-2" d="M542.89,75.89h16.41l26.73,78.18h-16.19l-6.32-18.69h-27.06l-6.21,18.69h-14.42l27.06-78.18ZM540.01,123.86h19.85l-9.87-29.63h-.44l-9.54,29.63Z"/>
        <path class="cls-2" d="M600.56,88.08h-21.18v-12.19h58.22v12.19h-21.4v65.98h-15.64v-65.98Z"/>
        <path class="cls-2" d="M643.58,75.89h16.19l19.07,58.35h.33l18.85-58.35h14.64l-26.5,78.18h-15.97l-26.62-78.18Z"/>
        <path class="cls-2" d="M727.98,75.89h16.41l26.73,78.18h-16.19l-6.32-18.69h-27.06l-6.21,18.69h-14.42l27.06-78.18ZM725.1,123.86h19.85l-9.87-29.63h-.44l-9.54,29.63Z"/>
      </g>
      <g>
        <path class="cls-2" d="M324.32,180.51h12.97l21.12,61.85h-12.79l-5-14.79h-21.38l-4.91,14.79h-11.39l21.38-61.85ZM322.05,218.46h15.69l-7.8-23.44h-.35l-7.54,23.44Z"/>
        <path class="cls-2" d="M354.91,180.51h12.53l9.55,43.81h.35l11.39-43.81h10.25l11.22,43.81h.35l9.73-43.81h11.04l-14.46,61.85h-12.62l-10.69-43.09h-.26l-11.31,43.09h-12.53l-14.55-61.85Z"/>
        <path class="cls-2" d="M449.29,180.51h12.97l21.12,61.85h-12.79l-5-14.79h-21.38l-4.91,14.79h-11.39l21.38-61.85ZM447.01,218.46h15.69l-7.8-23.44h-.35l-7.54,23.44Z"/>
        <path class="cls-2" d="M487.76,180.51h21.56c14.2,0,21.65,6.04,21.65,18.39,0,8.56-4.12,13.34-10.69,15.87v.45l14.9,27.14h-14.28l-11.92-24.34h-8.76v24.34h-12.44v-61.85ZM507.82,209.63c7.36,0,10.25-3.34,10.25-10.1s-2.98-9.56-10.34-9.56h-7.62v19.65h7.71Z"/>
        <path class="cls-2" d="M539.37,180.51h38.56v9.65h-26.12v15.69h20.42v9.56h-20.42v17.13h26.73v9.83h-39.17v-61.85Z"/>
        <path class="cls-2" d="M586.34,180.51h13.93l23.22,41.11h.26v-41.11h10.95v61.85h-12.27l-24.89-44.36h-.26v44.36h-10.95v-61.85Z"/>
        <path class="cls-2" d="M644.35,180.51h38.56v9.65h-26.12v15.69h20.42v9.56h-20.42v17.13h26.73v9.83h-39.17v-61.85Z"/>
        <path class="cls-2" d="M688.43,239.56v-9.83c4.91,2.16,10.6,3.79,17.26,3.79,7.62,0,10.95-3.25,10.95-8.11s-2.02-6.67-8.41-8.38l-5.43-1.44c-8.68-2.34-14.2-6.67-14.2-18.12,0-10.64,6.75-17.94,20.6-17.94,8.41,0,12.97,1.53,16.48,3.34v9.65c-4.03-1.44-8.94-3.16-15.69-3.16-6.13,0-9.46,2.52-9.46,7.21,0,4.33,1.93,6.22,7.62,7.75l5.26,1.44c9.82,2.7,15.51,6.85,15.51,18.3,0,12.08-7.27,19.29-22.08,19.29-8.06,0-14.2-1.53-18.4-3.79Z"/>
        <path class="cls-2" d="M732.24,239.56v-9.83c4.91,2.16,10.6,3.79,17.26,3.79,7.62,0,10.95-3.25,10.95-8.11s-2.02-6.67-8.41-8.38l-5.43-1.44c-8.68-2.34-14.2-6.67-14.2-18.12,0-10.64,6.75-17.94,20.59-17.94,8.41,0,12.97,1.53,16.48,3.34v9.65c-4.03-1.44-8.94-3.16-15.69-3.16-6.14,0-9.47,2.52-9.47,7.21,0,4.33,1.93,6.22,7.62,7.75l5.26,1.44c9.82,2.7,15.51,6.85,15.51,18.3,0,12.08-7.27,19.29-22.08,19.29-8.06,0-14.2-1.53-18.4-3.79Z"/>
      </g>
      <g>
        <path class="cls-3" d="M221.73,11.29c-42.64,23.99-88.2,43.03-135.17,57.03-1.36,16.07,15.85,24.24,24.82,35.3,21.51,26.53,7.62,69.72-3.29,98.48-7.49,19.74-15.35,37.47-32.59,50.63-1.8,1.38-5.56,4.96-7.69,4-6.16-7.35-21.88-15.37-22.63-25.69-1.13-15.78,19.73-24.82,31.75-29.7l17.32-5.63c-21.1,2.26-40.81,10.12-59.95,18.64-1.43-8.93-6.11-17.97-2.49-26.96,5.4-13.43,37.64-22.28,50.91-25.35l27.11-5.19c-28.6-.69-56.62,6.47-82.85,17.14-4.38-11.13-7.98-28.56,5.07-35.33,14.68-7.61,57.31-11.15,74.32-10.61,2.67.08,4.95.82,7.73.84.9,0,2.94.51,2.74-.79-29.58-6.4-60.16-3.79-89.53,2.32,2.52-9.94,9.1-21.97,19.61-25.11,8.51-2.54,25.33-2.13,34.4-1.21,6.46.65,12.78,2.27,19.14,3.44.81.15,2.55,1.02,2.37-.43-15.78-6.77-32.57-10.05-49.82-9.34-.4-1.53.64-1.5,1.31-2.18,7.24-7.36,17.58-12.37,20.49-23.45-12.67,2.25-25.13,5.77-37.89,7.63-6.43.94-19.65,3.08-25.57,2.49-6.23-.62-15.88-12.98-8.9-17.46,2.83-1.82,15.28-2.25,19.6-2.98C88.64,50.55,154.36,28,215.54,0c6.04.45,9.14,5.93,6.19,11.29Z"/>
        <path class="cls-3" d="M223.52,167.72l9.74,8.53c26.31,27.77-9.87,91.16-45.72,82.93-29.62-6.8-36.16-46.82-38-72.04-2.01-.17-1.3-.13-1.53,1.16-1.31,7.3-3.71,19.22-9.64,24.2-3.21,2.7-7.88,2.91-8.91-1.84-1.15-5.34,3.92-18.98,3.76-26.2-.19-8.55-5.33-19.75-6.15-28.9-.89-9.96,1.16-16.68,5.42-25.44-7.84-4.49-7.3-13.65,1.48-16.42-9.5-12.66-16.27-27.54-10.71-43.34,1.3-3.7,5.96-13.15,10.7-8.74-9.39,11.49-9.6,20.42-5.44,34.21l7.01,16.69c-2.05-12.38-2.81-23.08,1.97-34.95,2.23-5.55,10.83-20.34,17.19-20.98,1.35-.14,2.77-.24,3.35,1.26,1.56,4.63-5.44,7.76-8.11,10.36-9.69,9.44-12.94,21.23-12.04,34.59.14,2.13,1.05,9.02,1.74,10.7.88,2.13,3.45,2.31,4.1,3.68.86,1.8-.29,9.34,3.1,9.34,17.16-33.48,50.12-63.46,87.01-73.26,17.09-4.54,49.34-8.6,50.37,17.03.5,12.42-18.06,36.67-23.44,49.48-6.19,14.73-6.54,29.89-20.17,40.49-4.99,3.88-10.88,6.15-17.06,7.46ZM233.43,69.19c-6.21,1.27-9.12,8.96-3.16,12.9,12.71,8.41,17.46-15.83,3.16-12.9ZM149.55,142.84c8.47-4.7,16.8-9.82,24.84-15.22,9.77-6.56,35.68-23.92,37.41-35.74,1.65-11.27-13.65-4.29-18.59-1.43-19.01,10.97-34.51,32.87-43.66,52.39ZM206.39,112.54h26.08c3.55,0,8.13-9.77,6.61-13.21-2.71.83-5.38.92-8.21.8-3.73-.15-10.89-2.73-13.65-.47-3.38,2.77-7.02,9.82-10.84,12.88ZM184.59,129.62c4.22.03,8.57.35,12.74.88,7.87,1.01,36.15,9.03,33.17-5.91-1.71-8.6-25.31-8.86-31.67-5.22l-14.25,10.25ZM221.72,148.84c3.06-3.66-.74-6.2-3.9-7.7-8.17-3.86-32.55-8.64-41.05-6.48-6.45,1.64-16.18,10.99-22.57,14.01.03.95,17.11.3,19.08.4,8.76.44,17.68,2.03,26.44,2.36,4.62.17,19.12.84,21.99-2.59ZM153.44,156.06c8.01,6.31,16.2,12.8,24.67,18.5,4.72,3.18,13.61,9.95,19.22,9.43,6.71-.62,8.81-8.24,6.1-13.73-6.41-12.99-37.43-13.76-50-14.2ZM151.1,165.39c5.91,8.31,11.66,16.88,16.49,25.89,5.1,9.51,8.86,22.6,14.16,30.94,8.25,12.99,15.74,3.12,14.51-9.04-1.85-18.2-24.21-36.25-38.99-45.02-1.01-.6-5.26-3.5-6.16-2.78ZM213.94,179.51c-6.91,2.12,2.03,16.16,8.02,13.49,4.29-2.15-.02-15.94-8.02-13.49ZM174.46,231.43c2.67-3.53-13.87-41.57-19.45-45.85,1.77,16.3,7.04,31.63,17.43,44.39.66.81.02,1.94,2.02,1.45ZM193.94,191.02l12.42,22.96c7.93,6.81,15,3.7,11.08-7.17-1.11-3.08-10.32-17.28-12.97-17.32-2.46-.04-6.96,4.36-10.52,1.54Z"/>
      </g>
    </g>
  </g>
</svg>